<?xml version="1.0" encoding="iso-8859-1"?>
<!-- Generator: Adobe Illustrator 19.0.0, SVG Export Plug-In . SVG Version: 6.00 Build 0)  -->
<svg version="1.1" id="Capa_1" xmlns="http://www.w3.org/2000/svg" xmlns:xlink="http://www.w3.org/1999/xlink" x="0px" y="0px"
	 viewBox="0 0 512 512" style="enable-background:new 0 0 512 512;" xml:space="preserve">
<path style="fill:#F3C97F;" d="M465.136,223.25H46.864c-20.186,0-35.167-18.713-30.749-38.41l6.531-29.116
	C36.67,93.199,92.18,48.76,156.259,48.76h199.483c64.079,0,119.589,44.438,133.613,106.964l6.531,29.116
	C500.303,204.535,485.322,223.25,465.136,223.25z"/>
<g>
	<ellipse style="fill:#FFFFFF;" cx="168.36" cy="144.831" rx="32.34" ry="25.751"/>
	<ellipse style="fill:#FFFFFF;" cx="343.64" cy="144.831" rx="32.34" ry="25.751"/>
</g>
<path style="opacity:0.15;fill:#C85412;enable-background:new    ;" d="M163.557,48.76h-7.299
	c-64.079,0-119.589,44.438-133.613,106.964l-6.531,29.116c-4.418,19.696,10.563,38.41,30.749,38.41h149.033
	C134.748,179.742,152.257,86.665,163.557,48.76z"/>
<path style="fill:#DD6A56;" d="M296.738,372.514H61.585c-6.097,0-11.039-4.942-11.039-11.039v-20.348
	c0-6.096,4.942-11.039,11.039-11.039h235.152v42.426H296.738z"/>
<path style="fill:#EA5E57;" d="M281.865,372.514h168.549c6.096,0,11.039-4.942,11.039-11.039v-20.348
	c0-6.096-4.942-11.039-11.039-11.039H281.865c-6.096,0-11.039,4.942-11.039,11.039v20.348
	C270.827,367.573,275.769,372.514,281.865,372.514z"/>
<path style="fill:#F3C97F;" d="M476.828,463.243H35.172c-15.283,0-27.672-12.389-27.672-27.672v-35.384
	c0-15.283,12.389-27.673,27.672-27.673h441.655c15.283,0,27.672,12.389,27.672,27.673v35.384
	C504.5,450.853,492.111,463.243,476.828,463.243z"/>
<path style="fill:#AA8769;" d="M468.627,250.853H43.373c-16.848,0-30.505,13.658-30.505,30.505v18.226
	c0,16.848,13.657,30.505,30.505,30.505h425.254c16.848,0,30.505-13.658,30.505-30.505v-18.226
	C499.132,264.509,485.475,250.853,468.627,250.853z"/>
<path style="opacity:0.1;enable-background:new    ;" d="M43.373,250.853c-16.847,0-30.505,13.658-30.505,30.505v18.226
	c0,16.847,13.658,30.505,30.505,30.505h180.102c-32.55-14.153-31.236-55.406-22.773-79.236H43.373L43.373,250.853z"/>
<g style="opacity:0.1;">
	<circle cx="50.42" cy="292.822" r="7.347"/>
	<circle cx="158.25" cy="306.941" r="7.347"/>
	<circle cx="264.98" cy="299.202" r="7.347"/>
	<circle cx="373.49" cy="307.512" r="7.347"/>
	<circle cx="459.68" cy="292.822" r="7.347"/>
</g>
<path style="fill:#8CD4A2;" d="M70.521,280.551L70.521,280.551c16.296,18.515,45.146,18.515,61.442,0l0,0
	c11.068-12.575,30.661-12.575,41.729,0l0,0c16.296,18.515,45.146,18.515,61.442,0l0,0c11.068-12.575,30.661-12.575,41.729,0l0,0
	c16.296,18.515,45.146,18.515,61.442,0l0,0c11.068-12.575,30.661-12.575,41.729,0l0,0c16.296,18.515,45.146,18.515,61.442,0l0,0
	c13.447-15.277,20.865-34.932,20.865-55.285v-2.018H49.657v2.018C49.657,245.62,57.075,265.273,70.521,280.551z"/>
<path style="opacity:0.1;enable-background:new    ;" d="M49.657,225.267c0,20.352,7.418,40.007,20.865,55.285l0,0
	c12.521,14.225,32.447,17.508,48.402,9.874c-7.966-9.605-13.651-23.928-16.389-35.951c-1.632-7.168,3.772-14.004,11.124-14.004
	h347.29c0.921-4.984,1.396-10.072,1.396-15.203v-2.018H49.657V225.267z"/>
<g>
	<path style="fill:#A15838;" d="M118.017,123.83c-4.142,0-7.5-3.358-7.5-7.5v-12.682c0-4.142,3.358-7.5,7.5-7.5s7.5,3.358,7.5,7.5
		v12.682C125.517,120.472,122.159,123.83,118.017,123.83z"/>
	<path style="fill:#A15838;" d="M199.984,197.815c-4.142,0-7.5-3.358-7.5-7.5v-12.682c0-4.142,3.358-7.5,7.5-7.5s7.5,3.358,7.5,7.5
		v12.682C207.484,194.457,204.126,197.815,199.984,197.815z"/>
	<path style="fill:#A15838;" d="M82.304,183.54c-4.142,0-7.5-3.358-7.5-7.5v-12.682c0-4.142,3.358-7.5,7.5-7.5s7.5,3.358,7.5,7.5
		v12.682C89.804,180.182,86.446,183.54,82.304,183.54z"/>
	<path style="fill:#A15838;" d="M393.982,123.83c-4.143,0-7.5-3.358-7.5-7.5v-12.682c0-4.142,3.357-7.5,7.5-7.5s7.5,3.358,7.5,7.5
		v12.682C401.482,120.472,398.125,123.83,393.982,123.83z"/>
	<path style="fill:#A15838;" d="M312.016,197.815c-4.143,0-7.5-3.358-7.5-7.5v-12.682c0-4.142,3.357-7.5,7.5-7.5s7.5,3.358,7.5,7.5
		v12.682C319.516,194.457,316.158,197.815,312.016,197.815z"/>
	<path style="fill:#A15838;" d="M429.696,183.54c-4.143,0-7.5-3.358-7.5-7.5v-12.682c0-4.142,3.357-7.5,7.5-7.5s7.5,3.358,7.5,7.5
		v12.682C437.196,180.182,433.839,183.54,429.696,183.54z"/>
</g>
<path style="opacity:0.15;fill:#C85412;enable-background:new    ;" d="M35.172,372.514c-15.283,0-27.672,12.389-27.672,27.672
	v35.384c0,15.283,12.389,27.673,27.672,27.673h179.141c-41.63-22.593-45.283-64.21-38.932-90.729H35.172z"/>
<path d="M266.672,129.875c-2.694,3.092-6.584,4.866-10.672,4.866c-4.087,0-7.978-1.773-10.673-4.866
	c-2.722-3.123-7.459-3.448-10.581-0.726c-3.123,2.722-3.448,7.459-0.726,10.582c5.545,6.362,13.556,10.01,21.981,10.01
	c8.425,0,16.436-3.649,21.98-10.01c2.722-3.123,2.396-7.86-0.727-10.582C274.13,126.428,269.392,126.754,266.672,129.875z
	 M164.317,116.813c0,4.142,3.358,7.5,7.5,7.5s7.5-3.358,7.5-7.5c0-4.351,3.54-7.891,7.892-7.891s7.892,3.54,7.892,7.891
	c0,4.142,3.358,7.5,7.5,7.5s7.5-3.358,7.5-7.5c0-12.622-10.269-22.891-22.892-22.891S164.317,104.192,164.317,116.813z
	 M476.827,365.014h-8.222c0.223-1.147,0.348-2.328,0.348-3.539v-20.349c0-1.211-0.125-2.392-0.348-3.539h0.022
	c20.956,0,38.005-17.049,38.005-38.005v-18.227c0-20.956-17.049-38.005-38.005-38.005h-0.616c0.855-4.227,1.416-8.524,1.665-12.867
	c10.16-1.174,19.428-6.263,25.916-14.368c7.444-9.299,10.218-21.297,7.611-32.92l-6.53-29.116
	c-3.105-13.844-8.199-27.098-15.139-39.392c-2.035-3.608-6.611-4.881-10.218-2.845c-3.607,2.036-4.881,6.611-2.845,10.218
	c6.217,11.015,10.781,22.892,13.564,35.302l6.53,29.116c1.604,7.154-0.103,14.539-4.685,20.262s-11.414,9.006-18.746,9.006H46.864
	c-7.331,0-14.164-3.283-18.746-9.006c-4.582-5.724-6.29-13.109-4.685-20.262l6.531-29.116c6.411-28.584,22.536-54.408,45.405-72.716
	c22.868-18.307,51.596-28.39,80.89-28.39h199.482c34.091,0,66.281,13.152,90.642,37.034c2.956,2.898,7.704,2.854,10.605-0.105
	c2.9-2.958,2.852-7.706-0.105-10.606c-27.181-26.647-63.101-41.322-101.142-41.322H156.259c-32.689,0-64.746,11.251-90.264,31.68
	c-25.519,20.429-43.513,49.246-50.667,81.142l-6.531,29.116c-2.607,11.622,0.168,23.621,7.611,32.92
	c6.488,8.105,15.756,13.194,25.916,14.368c0.249,4.343,0.81,8.64,1.665,12.867h-0.616c-20.956,0-38.005,17.049-38.005,38.005v18.227
	c0,20.956,17.049,38.005,38.005,38.005h0.022c-0.223,1.147-0.348,2.328-0.348,3.539v20.349c0,1.211,0.125,2.392,0.348,3.539h-8.222
	C15.778,365.014,0,380.792,0,400.186v35.384c0,19.394,15.778,35.172,35.172,35.172h56.336c4.142,0,7.5-3.358,7.5-7.5
	s-3.358-7.5-7.5-7.5H35.172C24.049,455.742,15,446.693,15,435.57v-35.384c0-11.123,9.049-20.172,20.172-20.172h441.655
	c11.123,0,20.173,9.049,20.173,20.172v35.384c0,11.123-9.05,20.172-20.173,20.172H130.305c-4.142,0-7.5,3.358-7.5,7.5
	s3.358,7.5,7.5,7.5h346.522c19.395,0,35.173-15.778,35.173-35.172v-35.384C512,380.792,496.222,365.014,476.827,365.014z
	 M454.627,230.75c-0.437,6.068-1.586,12.028-3.423,17.762c-0.029,0.088-0.055,0.178-0.081,0.267
	c-3.182,9.808-8.346,18.947-15.274,26.818c-6.344,7.207-15.489,11.341-25.091,11.341c-9.603,0-18.748-4.134-25.092-11.341
	c-6.698-7.611-16.354-11.976-26.493-11.976c-0.001,0,0,0-0.001,0c-10.139,0-19.796,4.365-26.495,11.976
	c-6.344,7.207-15.489,11.341-25.091,11.341s-18.747-4.134-25.092-11.341c-6.698-7.611-16.355-11.976-26.494-11.976c-0.001,0,0,0,0,0
	c-10.138,0-19.796,4.366-26.495,11.976c-6.344,7.207-15.489,11.341-25.091,11.341s-18.747-4.134-25.091-11.341
	c-6.699-7.611-16.355-11.976-26.495-11.976c-10.139,0-19.795,4.365-26.494,11.976c-6.344,7.207-15.489,11.341-25.091,11.341
	s-18.748-4.134-25.091-11.341c-6.931-7.874-12.096-17.016-15.278-26.828c-0.024-0.084-0.048-0.167-0.076-0.25
	c-1.838-5.736-2.988-11.698-3.425-17.769H454.627z M43.373,322.589c-12.685,0-23.005-10.32-23.005-23.005v-18.227
	c0-12.685,10.32-23.005,23.005-23.005h5.013c3.842,9.865,9.391,19.071,16.506,27.154c9.191,10.442,22.44,16.431,36.351,16.431
	s27.16-5.989,36.351-16.431c3.852-4.376,9.405-6.886,15.234-6.886c5.83,0,11.383,2.51,15.235,6.886
	c9.191,10.442,22.44,16.431,36.351,16.431s27.16-5.989,36.351-16.431c3.852-4.376,9.405-6.886,15.235-6.886
	s11.383,2.51,15.234,6.886c9.191,10.442,22.441,16.432,36.353,16.431c13.91,0,27.159-5.989,36.35-16.431
	c3.853-4.376,9.405-6.887,15.235-6.887s11.383,2.51,15.234,6.886c9.19,10.442,22.44,16.431,36.352,16.431
	c13.91,0,27.16-5.989,36.351-16.431c7.115-8.084,12.664-17.29,16.506-27.155h5.013c12.684,0,23.005,10.32,23.005,23.005v18.227
	c0,12.685-10.32,23.005-23.005,23.005H43.373V322.589z M263.675,365.014H61.585c-1.951,0-3.538-1.587-3.538-3.539v-20.349
	c0-1.951,1.587-3.539,3.538-3.539h202.089c-0.223,1.147-0.348,2.328-0.348,3.539v20.349
	C263.327,362.686,263.452,363.867,263.675,365.014z M453.953,361.475c0,1.951-1.587,3.539-3.538,3.539h-168.55
	c-1.951,0-3.538-1.587-3.538-3.539v-20.349c0-1.951,1.587-3.539,3.538-3.539h168.55c1.951,0,3.538,1.587,3.538,3.539
	L453.953,361.475L453.953,361.475z M301.9,116.813c0,4.142,3.357,7.5,7.5,7.5s7.5-3.358,7.5-7.5c0-4.351,3.54-7.891,7.891-7.891
	c4.352,0,7.892,3.54,7.892,7.891c0,4.142,3.357,7.5,7.5,7.5s7.5-3.358,7.5-7.5c0-12.622-10.27-22.891-22.892-22.891
	C312.169,93.923,301.9,104.192,301.9,116.813z"/>
<g>
</g>
<g>
</g>
<g>
</g>
<g>
</g>
<g>
</g>
<g>
</g>
<g>
</g>
<g>
</g>
<g>
</g>
<g>
</g>
<g>
</g>
<g>
</g>
<g>
</g>
<g>
</g>
<g>
</g>
</svg>
